<?xml version="1.0" standalone="no"?>
<!DOCTYPE svg PUBLIC "-//W3C//DTD SVG 20010904//EN"
 "http://www.w3.org/TR/2001/REC-SVG-20010904/DTD/svg10.dtd">
<svg version="1.0" xmlns="http://www.w3.org/2000/svg"
 width="600.000000pt" height="600.000000pt" viewBox="0 0 600.000000 600.000000"
 preserveAspectRatio="xMidYMid meet">

<g transform="translate(0.000000,600.000000) scale(0.100000,-0.100000)"
fill="#000000" stroke="none">
<path d="M2751 5989 c-900 -74 -1721 -555 -2233 -1309 -293 -431 -462 -912
-508 -1445 -47 -557 82 -1171 351 -1660 645 -1174 1947 -1778 3254 -1510 746
154 1424 606 1857 1240 275 403 435 823 505 1325 23 173 23 567 0 740 -70 502
-230 922 -505 1325 -605 886 -1647 1382 -2721 1294z m457 -1000 c369 -40 720
-180 1017 -408 85 -64 256 -232 328 -321 584 -723 596 -1742 28 -2485 -64 -85
-232 -256 -321 -328 -356 -287 -806 -447 -1260 -447 -454 0 -904 160 -1260
447 -89 72 -257 243 -321 328 -558 730 -558 1720 0 2450 64 85 232 256 321
328 412 332 951 493 1468 436z"/>
<path d="M2880 3994 c-113 -21 -187 -41 -260 -71 -294 -121 -513 -377 -593
-693 -29 -115 -30 -329 -3 -445 35 -153 112 -307 214 -430 131 -159 336 -283
547 -331 109 -26 319 -26 430 0 379 86 674 381 761 761 26 110 26 320 0 430
-86 373 -371 664 -741 756 -77 20 -297 34 -355 23z"/>
</g>
</svg>
